<svg width="35" height="35" viewBox="0 0 35 35" fill="none" xmlns="http://www.w3.org/2000/svg">
<rect width="35" height="35" fill="#FF0000"/>
<path d="M16.2 24H10.774C10.4781 23.9898 10.1918 23.8922 9.9512 23.7196C9.71061 23.547 9.52648 23.307 9.42203 23.03C8.8128 20.9035 8.8588 18.6428 9.55403 16.543" stroke="white" stroke-width="2" stroke-linecap="round" stroke-linejoin="round"/>
<path d="M23.9999 16.1999V10.7739C23.9898 10.4779 23.8922 10.1916 23.7196 9.95105C23.547 9.71045 23.307 9.52633 23.0299 9.42188C20.9038 8.81285 18.6435 8.85885 16.5439 9.55388" stroke="white" stroke-width="2" stroke-linecap="round" stroke-linejoin="round"/>
<path d="M24.0001 11C25.0609 11 26.0784 11.3161 26.8285 11.8787C27.5787 12.4413 28.0001 13.2044 28.0001 14C28.0001 14.5304 27.7894 15.0391 27.4143 15.4142C27.0392 15.7893 26.5305 16 26.0001 16C24.1901 15.9995 22.414 16.4903 20.8611 17.42" stroke="white" stroke-width="2" stroke-linecap="round" stroke-linejoin="round"/>
<path d="M11 23.9999C11 25.0607 11.3161 26.0781 11.8787 26.8283C12.4413 27.5784 13.2044 27.9999 14 27.9999C14.5304 27.9999 15.0391 27.7891 15.4142 27.4141C15.7893 27.039 16 26.5303 16 25.9999C15.9994 24.1896 16.4902 22.4131 17.42 20.8599" stroke="white" stroke-width="2" stroke-linecap="round" stroke-linejoin="round"/>
<path d="M14.7091 8.55383C13.2856 9.04955 11.9926 9.86065 10.9267 10.9265C9.8609 11.9923 9.04979 13.2853 8.55407 14.7088C8.48095 15.0165 8.50695 15.3394 8.62836 15.6315C8.74977 15.9235 8.96037 16.1697 9.23007 16.3348L19.0371 21.7548C19.4168 21.9648 19.8545 22.0455 20.2842 21.9849C20.7139 21.9243 21.1122 21.7256 21.419 21.4187C21.7258 21.1119 21.9245 20.7136 21.9851 20.284C22.0458 19.8543 21.965 19.4166 21.7551 19.0368L16.3351 9.22983C16.1699 8.96012 15.9237 8.74952 15.6317 8.62812C15.3397 8.50671 15.0168 8.48071 14.7091 8.55383Z" stroke="white" stroke-width="2" stroke-linecap="round" stroke-linejoin="round"/>
</svg>
